#N canvas 802 65 1061 888 12;
#X obj 325 451 cnv 19 550 150 empty empty empty 20 12 0 12 #c6feff #404040 0;
#X obj 125 616 cnv 19 400 225 empty empty empty 20 12 0 12 #ffe3c6 #404040 0;
#X obj 110 16 cnv 19 200 225 empty empty empty 20 12 0 12 #feffc6 #404040 0;
#X obj 595 666 cnv 19 450 175 empty empty empty 20 12 0 12 #e3c6ff #404040 0;
#X obj 341 124 cnv 19 350 300 empty empty empty 20 12 0 12 #ffc7c6 #404040 0;
#X obj 130 723 *~;
#X floatatom 730 495 5 0 0 0 - - - 0;
#X text 698 469 Intrinsic frequency (Hz);
#X floatatom 533 496 5 0 0 0 - - - 0;
#X obj 158 748 *~ -1;
#X obj 202 801 soundfiler;
#X obj 129 693 tabplay~ sample-1-1;
#X obj 288 802 array define sample-1-1;
#X obj 130 776 dac~ 1 2, f 9;
#X obj 297 703 line~;
#X obj 297 677 pack 0 50;
#X floatatom 297 626 5 0 100 0 - - - 0;
#X obj 297 651 / 100;
#X text 516 475 Coupling;
#X obj 341 503 - 0;
#X text 333 471 Inputs (phase);
#N canvas 634 253 700 570 MvgAvg1 0;
#X obj 120 117 timer 1 samp;
#X obj 223 85 r pd;
#X obj 223 117 route audio-dialog;
#X msg 223 141 \$17;
#X obj 264 55 loadbang;
#X obj 265 82 samplerate~;
#X obj 122 313 float;
#X obj 119 174 t f f;
#X obj 122 286 sel 1;
#X msg 221 422 0;
#X obj 182 338 array define mean1 5;
#X obj 142 510 array set mean1;
#X obj 167 446 float;
#X obj 223 446 + 1;
#X obj 167 478 % 5;
#X obj 121 402 / 5;
#X obj 120 82 t b b;
#X obj 120 143 / 44100;
#X obj 119 27 inlet;
#X text 13 8 MOVING AVERAGE;
#X text 384 93 Detect samplerate change;
#X text 348 393 Counter to create circular array;
#X obj 120 538 outlet;
#X obj 121 262 < 1;
#X obj 121 373 array sum mean1;
#X obj 122 337 t b f b;
#X connect 0 0 17 0;
#X connect 1 0 2 0;
#X connect 2 0 3 0;
#X connect 3 0 17 1;
#X connect 4 0 5 0;
#X connect 5 0 17 1;
#X connect 6 0 25 0;
#X connect 7 0 23 0;
#X connect 7 1 6 1;
#X connect 8 0 6 0;
#X connect 9 0 12 1;
#X connect 12 0 13 0;
#X connect 12 0 14 0;
#X connect 13 0 12 1;
#X connect 14 0 11 1;
#X connect 15 0 22 0;
#X connect 16 0 0 0;
#X connect 16 1 0 1;
#X connect 17 0 7 0;
#X connect 18 0 16 0;
#X connect 23 0 8 0;
#X connect 24 0 15 0;
#X connect 25 0 24 0;
#X connect 25 1 11 0;
#X connect 25 2 12 0;
#X restore 360 143 pd MvgAvg1;
#X obj 482 171 expr 1/$f1;
#X obj 482 202 t f b;
#X msg 522 228 0;
#X obj 360 205 t f b;
#X msg 406 233 0;
#X obj 366 324 snapshot~;
#X obj 360 174 expr 1/$f1;
#X obj 482 262 phasor~;
#X obj 360 262 phasor~;
#X text 389 18 Onset inputs (bangs);
#X obj 586 217 r reset;
#X msg 586 244 0;
#X text 139 545 Agent onset (bang);
#X text 383 566 Agent freq;
#X obj 481 400 expr modf($f1);
#X obj 363 401 expr modf($f1);
#N canvas 1239 26 618 595 MvgAvg2 0;
#X obj 120 117 timer 1 samp;
#X obj 223 85 r pd;
#X obj 223 117 route audio-dialog;
#X msg 223 141 \$17;
#X obj 264 55 loadbang;
#X obj 265 82 samplerate~;
#X obj 122 313 float;
#X obj 119 174 t f f;
#X obj 122 286 sel 1;
#X msg 253 419 0;
#X obj 167 418 float;
#X obj 223 418 + 1;
#X obj 192 460 % 5;
#X obj 121 418 / 5;
#X obj 120 82 t b b;
#X obj 120 143 / 44100;
#X obj 119 27 inlet;
#X text 13 8 MOVING AVERAGE;
#X text 384 93 Detect samplerate change;
#X text 351 226 Assure IOI < 2 * tempoIOI;
#X text 348 393 Counter to create circular array;
#X obj 119 526 outlet;
#X obj 121 262 < 1;
#X obj 250 334 array define mean3 5;
#X obj 141 494 array set mean3;
#X obj 122 337 t b f b;
#X obj 122 380 array sum mean3;
#X connect 0 0 15 0;
#X connect 1 0 2 0;
#X connect 2 0 3 0;
#X connect 3 0 15 1;
#X connect 4 0 5 0;
#X connect 5 0 15 1;
#X connect 6 0 25 0;
#X connect 7 0 22 0;
#X connect 7 1 6 1;
#X connect 8 0 6 0;
#X connect 9 0 10 1;
#X connect 10 0 11 0;
#X connect 10 0 12 0;
#X connect 11 0 10 1;
#X connect 12 0 24 1;
#X connect 13 0 21 0;
#X connect 14 0 0 0;
#X connect 14 1 0 1;
#X connect 15 0 7 0;
#X connect 16 0 14 0;
#X connect 22 0 8 0;
#X connect 25 0 26 0;
#X connect 25 1 24 0;
#X connect 25 2 10 0;
#X connect 26 0 13 0;
#X restore 482 140 pd MvgAvg2;
#X obj 129 519 cyclone/edge~;
#X obj 129 467 cyclone/delta~;
#X obj 129 493 cyclone/lessthan~ -0.5;
#X floatatom 618 695 5 0 0 0 - - - 0;
#X msg 732 801 connect 127.0.0.1 1234;
#X obj 620 750 list prepend send;
#X obj 619 776 list trim;
#X obj 619 802 netsend -u -b;
#X obj 619 719 oscformat speed;
#X obj 598 4 loadbang;
#X obj 355 17 key;
#X obj 159 37 loadbang;
#X obj 159 89 netreceive -u -b;
#X obj 159 114 oscparse;
#X obj 159 138 list trim;
#X obj 442 77 s playerOnset;
#X obj 140 650 r playerOnset;
#X obj 158 193 t b;
#X obj 372 81 bng 19 250 50 0 empty empty empty 0 -10 0 12 #fcfcfc #000000 #000000;
#X floatatom 342 566 5 0 0 0 - - - 0;
#X floatatom 536 202 5 0 0 0 - - - 0;
#X obj 482 325 snapshot~;
#X obj 615 279 tgl 19 0 empty empty empty 0 -10 0 12 #fcfcfc #000000 #000000 0 1;
#X obj 616 327 t b b;
#X floatatom 419 200 5 0 0 0 - - - 0;
#X obj 359 43 route 32 96, f 12;
#X obj 341 535 expr $f3 + $f2 * sin(2 * 3.14159 * $f1) / (2 * 3.14159), f 56;
#X obj 203 749 loadbang;
#X msg 202 772 read -resize Sounds/EweTalking.wav sample-1-1;
#X obj 599 29 bng 19 250 50 0 empty empty empty 0 -10 0 12 #fcfcfc #000000 #000000;
#X obj 599 54 s reset;
#X msg 350 625 100;
#X msg 383 624 0;
#X obj 744 720 oscformat phase;
#X floatatom 744 685 5 0 0 0 - - - 0;
#X obj 743 659 bng 19 250 50 0 empty empty empty 0 -10 0 12 #fcfcfc #000000 #000000;
#X obj 766 135 cnv 19 200 200 empty empty empty 20 12 0 12 #c7c6ff #404040 0;
#X msg 791 255 clear;
#X obj 791 288 text define -k text-1;
#A set 1 2 27066.4 \; 1 3 27653.4 \;;
#X msg 846 254 write T\$1.txt;
#X obj 794 204 text set text-1;
#X msg 828 173 1e+15;
#X obj 828 152 loadbang;
#X floatatom 784 165 5 0 0 0 - - - 0;
#X obj 596 458 r reset;
#X msg 630 481 1.6666;
#X obj 668 54 s start;
#X obj 666 29 bng 19 250 50 0 empty empty empty 0 -10 0 12 #fcfcfc #000000 #000000;
#X obj 621 183 r start;
#X msg 622 243 1.666;
#X msg 638 279 1;
#X obj 618 670 / 1.666;
#X obj 828 685 r reset;
#X msg 761 748 disconnect;
#X msg 791 685 0;
#X obj 189 282 vsl 19 162 0 1 0 0 empty empty empty 0 -9 0 12 #fcfcfc #000000 #000000 0 1;
#X msg 746 51 \; pd dsp \$1;
#X obj 747 17 tgl 19 0 empty empty empty 0 -10 0 12 #fcfcfc #000000 #000000 0 1;
#X obj 141 281 vsl 19 162 0 1 0 0 empty empty empty 0 -9 0 12 #fcfcfc #000000 #000000 0 1;
#X obj 159 167 route Onset;
#X obj 103 240 bng 19 250 50 0 empty empty empty 0 -10 0 12 #fcfcfc #000000 #000000;
#X msg 159 63 listen 5678;
#X msg 598 481 4;
#X msg 733 777 connect 255.255.255.255 1234;
#X obj 481 362 + 0;
#X floatatom 421 357 5 0 0 0 - - - 0;
#X obj 616 302 metro 20;
#X msg 732 824 connect 10.122.174.159 1234;
#X obj 362 356 + 0.75;
#X connect 5 0 9 0;
#X connect 5 0 13 0;
#X connect 6 0 65 2;
#X connect 8 0 65 1;
#X connect 9 0 13 1;
#X connect 11 0 5 0;
#X connect 14 0 5 1;
#X connect 15 0 14 0;
#X connect 16 0 17 0;
#X connect 17 0 15 0;
#X connect 19 0 65 0;
#X connect 21 0 28 0;
#X connect 22 0 23 0;
#X connect 23 0 59 0;
#X connect 23 1 24 0;
#X connect 24 0 29 1;
#X connect 25 0 30 0;
#X connect 25 0 63 0;
#X connect 25 0 6 0;
#X connect 25 1 26 0;
#X connect 26 0 30 1;
#X connect 27 0 107 0;
#X connect 28 0 25 0;
#X connect 29 0 60 0;
#X connect 29 0 40 0;
#X connect 30 0 27 0;
#X connect 32 0 33 0;
#X connect 32 0 24 0;
#X connect 33 0 29 0;
#X connect 33 0 30 0;
#X connect 33 0 61 0;
#X connect 36 0 94 0;
#X connect 36 0 19 1;
#X connect 37 0 97 0;
#X connect 37 0 19 0;
#X connect 38 0 22 0;
#X connect 39 0 11 0;
#X connect 40 0 41 0;
#X connect 41 0 39 0;
#X connect 42 0 47 0;
#X connect 43 0 46 0;
#X connect 44 0 45 0;
#X connect 45 0 46 0;
#X connect 47 0 44 0;
#X connect 49 0 64 0;
#X connect 50 0 100 0;
#X connect 51 0 52 0;
#X connect 52 0 53 0;
#X connect 53 0 98 0;
#X connect 55 0 11 0;
#X connect 56 0 99 0;
#X connect 56 0 38 0;
#X connect 60 0 103 0;
#X connect 61 0 105 0;
#X connect 62 0 27 0;
#X connect 62 1 60 0;
#X connect 64 0 57 0;
#X connect 64 0 21 0;
#X connect 64 1 38 0;
#X connect 64 1 54 0;
#X connect 65 0 58 0;
#X connect 65 0 29 0;
#X connect 65 0 90 0;
#X connect 66 0 67 0;
#X connect 67 0 10 0;
#X connect 68 0 69 0;
#X connect 70 0 16 0;
#X connect 71 0 16 0;
#X connect 72 0 44 0;
#X connect 73 0 72 0;
#X connect 74 0 73 0;
#X connect 76 0 77 0;
#X connect 78 0 77 0;
#X connect 80 0 79 1;
#X connect 81 0 80 0;
#X connect 82 0 79 0;
#X connect 83 0 101 0;
#X connect 83 0 84 0;
#X connect 84 0 6 0;
#X connect 86 0 85 0;
#X connect 87 0 89 0;
#X connect 87 0 88 0;
#X connect 88 0 29 0;
#X connect 89 0 61 0;
#X connect 90 0 42 0;
#X connect 91 0 93 0;
#X connect 92 0 46 0;
#X connect 93 0 73 0;
#X connect 93 0 42 0;
#X connect 96 0 95 0;
#X connect 98 0 56 0;
#X connect 100 0 51 0;
#X connect 101 0 8 0;
#X connect 102 0 46 0;
#X connect 103 0 36 0;
#X connect 104 0 107 1;
#X connect 105 0 62 0;
#X connect 106 0 46 0;
#X connect 107 0 37 0;
#X coords 0 888 1 887 85 60 0;
